<svg width="38" height="38" viewBox="0 0 38 38" fill="none" xmlns="http://www.w3.org/2000/svg">
<path d="M25.4996 10.489V9.7698C25.4996 9.3978 25.1996 9.125 24.8496 9.125H24.2996C23.9246 9.125 23.6496 9.4226 23.6496 9.7698V10.4642H19.3996V9.7698C19.3996 9.3978 19.0996 9.125 18.7496 9.125H18.1996C17.8246 9.125 17.5496 9.4226 17.5496 9.7698V10.4642H13.2996V9.7698C13.2996 9.3978 12.9996 9.125 12.6496 9.125H12.0996C11.7246 9.125 11.4496 9.4226 11.4496 9.7698V10.489C10.5246 10.6378 9.84961 11.4066 9.84961 12.349V25.7658C9.84961 26.8074 10.6996 27.6754 11.7746 27.6754H25.2996C26.3496 27.6754 27.2246 26.8322 27.2246 25.7658V12.3738C27.2246 11.4066 26.4746 10.5882 25.5246 10.489H25.4996ZM24.1246 9.7698C24.1246 9.6706 24.1996 9.621 24.2746 9.621H24.8246C24.8996 9.621 24.9746 9.6954 24.9746 9.7698V11.6546C24.9746 11.7538 24.8996 11.8034 24.8246 11.8034H24.2746C24.1996 11.8034 24.1246 11.729 24.1246 11.6546V9.7698ZM18.0246 9.7698C18.0246 9.6706 18.0996 9.621 18.1746 9.621H18.7246C18.7996 9.621 18.8746 9.6954 18.8746 9.7698V11.6546C18.8746 11.7538 18.7996 11.8034 18.7246 11.8034H18.1746C18.0996 11.8034 18.0246 11.729 18.0246 11.6546V9.7698ZM11.9246 9.7698C11.9246 9.6706 11.9996 9.621 12.0746 9.621H12.6246C12.6996 9.621 12.7746 9.6954 12.7746 9.7698V11.6546C12.7746 11.7538 12.6996 11.8034 12.6246 11.8034H12.0746C11.9746 11.8034 11.9246 11.729 11.9246 11.6546V9.7698ZM11.4246 10.985V11.6546C11.4246 12.0266 11.7246 12.2994 12.0746 12.2994H12.6246C12.9996 12.2994 13.2746 12.0018 13.2746 11.6546V10.9602H17.5246V11.6546C17.5246 12.0266 17.8246 12.2994 18.1746 12.2994H18.7246C19.0996 12.2994 19.3746 12.0018 19.3746 11.6546V10.9602H23.6246V11.6546C23.6246 12.0266 23.9246 12.2994 24.2746 12.2994H24.8246C25.1996 12.2994 25.4746 12.0018 25.4746 11.6546V10.985C26.1496 11.0842 26.6746 11.6794 26.6746 12.3738V14.7794H10.3246V12.3738C10.3246 11.7042 10.7996 11.1586 11.4246 11.0098V10.985ZM25.2746 27.1794H11.7246C10.9496 27.1794 10.2996 26.5594 10.2996 25.7658V15.2506H26.6496V25.7658C26.6496 26.5346 26.0246 27.1794 25.2246 27.1794H25.2746Z" fill="#0099FF" stroke="#0099FF" stroke-width="0.5"/>
<circle cx="18.6769" cy="18.6769" r="18.1769" stroke="#0099FF"/>
</svg>
