<svg width="38" height="38" viewBox="0 0 38 38" fill="none" xmlns="http://www.w3.org/2000/svg">
<circle cx="18.3933" cy="12.3777" r="5.28585" stroke="#0099FF"/>
<mask id="path-2-inside-1_2219_761" fill="white">
<path d="M9.766 28.3156C9.82927 25.939 10.8194 23.6794 12.5286 22.0114C14.2378 20.3433 16.5332 19.3964 18.9328 19.3693C21.3325 19.3423 23.6499 20.2373 25.3986 21.8665C27.1473 23.4956 28.1913 25.7322 28.3114 28.1068L22.6423 28.3856C22.5957 27.4634 22.1903 26.5948 21.5111 25.9621C20.832 25.3295 19.9321 24.9819 19.0002 24.9924C18.0683 25.0029 17.1769 25.3706 16.5131 26.0184C15.8493 26.6662 15.4648 27.5437 15.4402 28.4667L9.766 28.3156Z"/>
</mask>
<path d="M9.766 28.3156C9.82927 25.939 10.8194 23.6794 12.5286 22.0114C14.2378 20.3433 16.5332 19.3964 18.9328 19.3693C21.3325 19.3423 23.6499 20.2373 25.3986 21.8665C27.1473 23.4956 28.1913 25.7322 28.3114 28.1068L22.6423 28.3856C22.5957 27.4634 22.1903 26.5948 21.5111 25.9621C20.832 25.3295 19.9321 24.9819 19.0002 24.9924C18.0683 25.0029 17.1769 25.3706 16.5131 26.0184C15.8493 26.6662 15.4648 27.5437 15.4402 28.4667L9.766 28.3156Z" stroke="#0099FF" stroke-width="2" mask="url(#path-2-inside-1_2219_761)"/>
<circle cx="18.6769" cy="18.6769" r="18.1769" stroke="#0099FF"/>
</svg>
