<svg width="1899" height="474" viewBox="0 0 1899 474" fill="none" xmlns="http://www.w3.org/2000/svg">
<g clip-path="url(#clip0_2219_1621)">
<path d="M292.132 422.45H1777.91C1798.81 422.45 1815.76 406.322 1815.76 386.425C1815.76 366.528 1798.81 350.399 1777.91 350.399H1375.79C1350.55 350.399 1330.08 330.921 1330.08 306.897C1330.08 282.873 1350.55 263.395 1375.79 263.395H1609.34C1630.25 263.395 1647.2 247.266 1647.2 227.369V167.552C1647.2 147.655 1664.14 131.526 1685.05 131.526H1799.32C1820.23 131.526 1837.18 115.398 1837.18 95.5012V24.1162" stroke="white" stroke-width="4" stroke-linecap="round" stroke-linejoin="round"/>
<path d="M1698.02 24.1162H212.246C191.339 24.1162 174.393 40.2446 174.393 60.1414C174.393 80.0383 191.339 96.1666 212.246 96.1666H614.361C639.605 96.1666 660.071 115.645 660.071 139.669C660.071 163.693 639.605 183.172 614.361 183.172H380.809C359.902 183.172 342.956 199.3 342.956 219.197V279.014C342.956 298.911 326.009 315.04 305.103 315.04H190.829C169.922 315.04 152.976 331.168 152.976 351.065V422.435" stroke="white" stroke-width="4" stroke-linecap="round" stroke-linejoin="round"/>
<path d="M1837.19 48.0207C1851.06 48.0207 1862.31 37.3183 1862.31 24.1161C1862.31 10.9139 1851.06 0.211426 1837.19 0.211426C1823.32 0.211426 1812.07 10.9139 1812.07 24.1161C1812.07 37.3183 1823.32 48.0207 1837.19 48.0207Z" fill="#18B8FF"/>
<path d="M1666.48 401.237C1696 401.237 1719.93 378.459 1719.93 350.362C1719.93 322.264 1696 299.487 1666.48 299.487C1636.95 299.487 1613.02 322.264 1613.02 350.362C1613.02 378.459 1636.95 401.237 1666.48 401.237Z" fill="#18B8FF"/>
<path d="M152.968 473.325C182.491 473.325 206.424 450.547 206.424 422.45C206.424 394.352 182.491 371.575 152.968 371.575C123.445 371.575 99.5117 394.352 99.5117 422.45C99.5117 450.547 123.445 473.325 152.968 473.325Z" fill="#18B8FF"/>
<path d="M172.656 74.1239C184.003 74.1239 193.201 65.3698 193.201 54.571C193.201 43.7722 184.003 35.0181 172.656 35.0181C161.31 35.0181 152.111 43.7722 152.111 54.571C152.111 65.3698 161.31 74.1239 172.656 74.1239Z" fill="#18B8FF"/>
<path d="M10.2686 74.1236C15.9397 74.1236 20.5371 69.7482 20.5371 64.3508C20.5371 58.9535 15.9397 54.5781 10.2686 54.5781C4.59739 54.5781 0 58.9535 0 64.3508C0 69.7482 4.59739 74.1236 10.2686 74.1236Z" fill="#18B8FF"/>
<path d="M343.859 277.818C349.531 277.818 354.128 273.443 354.128 268.045C354.128 262.648 349.531 258.272 343.859 258.272C338.188 258.272 333.591 262.648 333.591 268.045C333.591 273.443 338.188 277.818 343.859 277.818Z" fill="#18B8FF"/>
<path d="M1888.73 342.287C1894.4 342.287 1899 337.911 1899 332.514C1899 327.117 1894.4 322.741 1888.73 322.741C1883.06 322.741 1878.46 327.117 1878.46 332.514C1878.46 337.911 1883.06 342.287 1888.73 342.287Z" fill="#18B8FF"/>
<path d="M292.131 441.689C303.295 441.689 312.346 433.075 312.346 422.45C312.346 411.825 303.295 403.211 292.131 403.211C280.967 403.211 271.916 411.825 271.916 422.45C271.916 433.075 280.967 441.689 292.131 441.689Z" fill="#18B8FF"/>
<path d="M1698.02 43.3552C1709.19 43.3552 1718.24 34.7416 1718.24 24.1163C1718.24 13.491 1709.19 4.87744 1698.02 4.87744C1686.86 4.87744 1677.81 13.491 1677.81 24.1163C1677.81 34.7416 1686.86 43.3552 1698.02 43.3552Z" fill="#18B8FF"/>
<path d="M152.967 452.366C171.265 452.366 186.154 438.197 186.154 420.782C186.154 404.37 172.923 390.859 156.086 389.356L158.734 386.836L156.157 384.383L150.563 389.707C150.225 390.029 150.029 390.47 150.029 390.933C150.029 391.397 150.218 391.831 150.563 392.16L156.157 397.483L158.734 395.031L156.471 392.877C171.116 394.537 182.516 406.404 182.516 420.782C182.516 436.283 169.262 448.897 152.975 448.897C136.688 448.897 123.434 436.283 123.434 420.782C123.434 410.097 129.688 400.459 139.753 395.644L138.118 392.548C126.821 397.962 119.805 408.774 119.805 420.782C119.805 438.197 134.693 452.366 152.991 452.366H152.967Z" fill="white"/>
<path d="M152.968 441.973C165.248 441.973 175.233 432.469 175.233 420.782C175.233 409.095 165.248 399.592 152.968 399.592C140.688 399.592 130.702 409.095 130.702 420.782C130.702 432.469 140.688 441.973 152.968 441.973ZM152.968 422.644C149.142 422.644 146.022 419.676 146.022 416.034C146.022 412.998 148.199 410.456 151.145 409.686V406.927H154.783V409.686C157.729 410.449 159.905 412.991 159.905 416.034H156.267C156.267 414.299 154.783 412.894 152.968 412.894C151.153 412.894 149.668 414.307 149.668 416.034C149.668 417.761 151.153 419.175 152.968 419.175C156.794 419.175 159.913 422.143 159.913 425.784C159.913 428.82 157.737 431.362 154.79 432.133V434.63H151.153V432.133C148.207 431.37 146.03 428.828 146.03 425.784H149.668C149.668 427.519 151.153 428.925 152.968 428.925C154.783 428.925 156.267 427.512 156.267 425.784C156.267 424.057 154.783 422.644 152.968 422.644Z" fill="white"/>
<path d="M1676.9 357.024C1675.27 357.024 1673.86 358.123 1673.55 359.648C1673.23 361.174 1674.09 362.699 1675.6 363.297C1677.11 363.895 1678.85 363.387 1679.75 362.093C1680.66 360.8 1680.48 359.08 1679.32 357.981C1678.68 357.368 1677.81 357.024 1676.9 357.031V357.024Z" fill="white"/>
<path d="M1658.48 342.75C1659.46 341.815 1659.75 340.417 1659.22 339.198C1658.69 337.98 1657.44 337.187 1656.06 337.187C1654.68 337.187 1653.42 337.98 1652.89 339.198C1652.36 340.417 1652.66 341.815 1653.64 342.75C1654.97 344.021 1657.14 344.021 1658.49 342.75H1658.48Z" fill="white"/>
<path d="M1703.31 350.362L1695.77 341.307L1696.28 329.762L1684.57 326.666L1677.86 317.028L1666.48 321.073L1655.09 317.028L1648.38 326.666L1636.68 329.769L1637.19 341.314L1629.64 350.369L1637.19 359.424L1636.68 370.969L1648.38 374.065L1655.09 383.703L1666.48 379.657L1677.86 383.703L1684.57 374.065L1696.28 370.961L1695.77 359.417L1703.31 350.362ZM1650.16 334.832C1652.55 332.566 1656.13 331.886 1659.24 333.119C1662.35 334.346 1664.39 337.239 1664.39 340.447C1664.39 343.655 1662.36 346.548 1659.24 347.775C1656.13 349.001 1652.55 348.328 1650.16 346.062C1646.91 342.959 1646.91 337.942 1650.16 334.839V334.832ZM1655.34 364.277L1651.86 360.972L1677.62 336.454L1681.1 339.759L1655.34 364.277ZM1682.8 365.899C1680.41 368.165 1676.83 368.845 1673.71 367.619C1670.6 366.393 1668.57 363.499 1668.57 360.291C1668.57 357.084 1670.59 354.19 1673.71 352.964C1676.82 351.738 1680.41 352.418 1682.8 354.684C1684.37 356.164 1685.25 358.19 1685.25 360.291C1685.25 362.393 1684.37 364.419 1682.8 365.899Z" fill="white"/>
<path d="M1822.15 239.863L1819.54 195.86C1819.47 194.641 1818.4 193.677 1817.11 193.677H1771.1C1769.85 193.677 1768.78 194.611 1768.67 195.815L1766.14 227.197L1761.85 226.875L1764.39 195.494C1764.64 192.174 1767.6 189.579 1771.09 189.579H1817.1C1820.67 189.579 1823.62 192.234 1823.82 195.621L1826.44 239.624L1822.15 239.848L1822.16 239.863H1822.15Z" fill="white"/>
<path d="M1764.17 265.309L1764.14 261.211C1778.21 261.121 1786.38 261.009 1796.74 260.867C1801.71 260.8 1807.16 260.718 1813.97 260.643C1814.65 260.643 1815.3 260.426 1815.87 260.037L1842.63 241.561C1843.85 240.716 1844.6 239.408 1844.67 237.964C1844.74 236.529 1844.14 235.153 1843 234.196L1842.89 234.106C1841.35 232.82 1839.1 232.686 1837.4 233.785L1823.84 242.653C1821.52 244.163 1818.64 244.358 1816.12 243.154C1813.61 241.957 1812.04 239.647 1811.93 236.977V236.828C1811.88 235.976 1811.49 235.175 1810.83 234.607C1810.16 234.039 1809.29 233.755 1808.39 233.822C1806.03 233.979 1804.03 234.286 1802.09 234.585C1798.33 235.153 1794.76 235.699 1789.26 235.235C1784.12 234.802 1781.27 232.73 1778.75 230.921C1776.64 229.396 1774.97 228.192 1772.12 228.027C1768.55 227.825 1764.13 228.326 1756.8 236.776L1753.47 234.166C1761.67 224.7 1767.4 223.653 1772.38 223.937C1776.52 224.162 1779.09 226.016 1781.34 227.661C1783.59 229.291 1785.72 230.824 1789.63 231.153C1794.6 231.571 1797.74 231.093 1801.39 230.54C1803.42 230.233 1805.51 229.912 1808.06 229.74C1810.13 229.59 1812.12 230.241 1813.68 231.557C1815.23 232.88 1816.13 234.689 1816.22 236.663V236.813C1816.28 237.972 1816.95 238.974 1818.05 239.497C1819.13 240.021 1820.39 239.938 1821.39 239.28L1834.95 230.412C1838.28 228.237 1842.72 228.498 1845.72 231.041L1845.83 231.13C1847.95 232.917 1849.1 235.475 1848.95 238.159C1848.82 240.843 1847.44 243.288 1845.14 244.873L1818.38 263.35C1817.1 264.239 1815.59 264.718 1814.01 264.725C1807.2 264.808 1801.75 264.882 1796.78 264.95C1786.42 265.099 1778.24 265.211 1764.15 265.294L1764.17 265.279V265.309Z" fill="white"/>
<path d="M1786.65 251.55H1785.89C1784.7 251.535 1783.75 250.616 1783.76 249.479C1783.78 248.35 1784.75 247.445 1785.94 247.453C1791.07 247.498 1796.2 247.012 1801.22 245.995C1807.33 244.754 1813.25 242.727 1818.81 239.983C1819.86 239.46 1821.17 239.856 1821.72 240.858C1822.26 241.86 1821.85 243.101 1820.8 243.625C1814.89 246.541 1808.61 248.687 1802.12 250.01C1797.05 251.042 1791.85 251.558 1786.66 251.558V251.543L1786.65 251.55Z" fill="white"/>
<path d="M1757.93 272.599C1756.81 272.599 1755.71 272.352 1754.7 271.851C1753.01 271.029 1751.76 269.63 1751.17 267.911L1741.71 240.036C1741.12 238.316 1741.28 236.484 1742.15 234.884C1743.02 233.276 1744.48 232.087 1746.29 231.527L1748.08 230.966C1751.81 229.814 1755.82 231.773 1757.02 235.325L1766.48 263.2C1767.69 266.752 1765.63 270.565 1761.9 271.709L1760.11 272.27C1759.4 272.487 1758.65 272.599 1757.93 272.599ZM1750.27 234.734C1749.98 234.734 1749.69 234.779 1749.41 234.861L1747.62 235.422C1746.9 235.639 1746.33 236.103 1745.99 236.746C1745.64 237.381 1745.58 238.099 1745.82 238.779L1755.28 266.655C1755.51 267.335 1755.99 267.881 1756.67 268.21C1757.35 268.539 1758.09 268.599 1758.81 268.367L1760.6 267.806C1762.07 267.35 1762.88 265.847 1762.41 264.449L1752.95 236.574C1752.72 235.893 1752.23 235.347 1751.56 235.018C1751.15 234.824 1750.71 234.719 1750.27 234.719V234.734Z" fill="white"/>
<path d="M1806.39 203.098C1805.98 203.098 1805.55 202.986 1805.18 202.747C1804.2 202.111 1803.94 200.832 1804.61 199.905C1806.03 197.924 1806.76 195.606 1806.76 193.191C1806.76 186.566 1801.11 181.182 1794.15 181.182C1787.19 181.182 1781.53 186.566 1781.53 193.191C1781.53 195.389 1782.15 197.528 1783.34 199.389C1783.95 200.354 1783.63 201.618 1782.6 202.201C1781.59 202.784 1780.26 202.477 1779.65 201.505C1778.06 199.001 1777.22 196.122 1777.22 193.191C1777.22 184.315 1784.81 177.092 1794.14 177.092C1803.46 177.092 1811.05 184.315 1811.05 193.191C1811.05 196.421 1810.05 199.531 1808.16 202.193C1807.75 202.777 1807.06 203.091 1806.38 203.091V203.106L1806.39 203.098Z" fill="white"/>
<path d="M141.348 149.883C134.851 149.883 129.587 154.893 129.587 161.076C129.587 167.26 134.851 172.27 141.348 172.27C147.846 172.27 153.11 167.26 153.11 161.076C153.102 154.9 147.846 149.89 141.348 149.883ZM141.348 167.551C137.593 167.551 134.544 164.65 134.544 161.076C134.544 157.502 137.593 154.601 141.348 154.601C145.104 154.601 148.152 157.502 148.152 161.076C148.152 164.65 145.104 167.551 141.348 167.551Z" fill="white"/>
<path d="M214.226 137.313H115.162C110.15 137.313 106.088 141.187 106.08 145.957V215.099C106.08 219.869 110.15 223.735 115.162 223.743H145.709V244.17H141.584C140.217 244.17 139.109 245.232 139.117 246.533C139.117 247.827 140.225 248.874 141.584 248.881H187.812C189.179 248.881 190.287 247.819 190.279 246.518C190.279 245.225 189.171 244.178 187.812 244.17H183.687V223.743H214.234C219.246 223.743 223.308 219.869 223.316 215.099V145.957C223.316 141.187 219.246 137.321 214.234 137.313H214.226ZM156.598 191.366C155.718 191.755 155.16 192.585 155.16 193.505V219.024H127.544V183.239C127.544 181.908 128.676 180.831 130.074 180.823H152.622C153.039 180.823 153.455 180.936 153.817 181.137C153.856 181.152 154.107 181.294 154.147 181.309C154.257 181.369 154.359 181.437 154.461 181.504L168.053 192.525C168.98 193.28 170.347 193.28 171.274 192.525L185.557 180.876C186.618 180.008 188.221 180.121 189.132 181.13C190.043 182.139 189.926 183.665 188.865 184.532C188.865 184.532 188.865 184.532 188.857 184.54L171.321 198.843C170.363 199.591 168.988 199.591 168.029 198.843L159.238 191.71C158.507 191.112 157.47 190.977 156.59 191.366H156.598ZM178.73 244.17H150.658V223.743H178.73V244.17ZM218.351 215.099C218.351 217.267 216.504 219.024 214.226 219.024H160.11V198.612L164.816 202.433C167.652 204.631 171.714 204.623 174.542 202.418L192.078 188.114C195.213 185.549 195.574 181.055 192.887 178.064C190.193 175.081 185.471 174.737 182.328 177.294L169.648 187.635L157.659 177.915C157.352 177.683 157.038 177.466 156.7 177.272C156.535 177.175 156.362 177.085 156.189 177.003C155.097 176.427 153.864 176.12 152.615 176.113H130.066C125.934 176.113 122.587 179.306 122.579 183.239V219.024H115.147C112.868 219.024 111.022 217.267 111.022 215.099V145.957C111.022 143.789 112.868 142.032 115.147 142.032H214.21C216.489 142.032 218.335 143.789 218.335 145.957V215.099H218.351Z" fill="white"/>
<path d="M207.619 149.883H171.298C169.931 149.883 168.823 150.937 168.823 152.238C168.823 153.539 169.931 154.593 171.298 154.593H207.619C208.986 154.593 210.094 153.539 210.094 152.238C210.094 150.937 208.986 149.883 207.619 149.883Z" fill="white"/>
<path d="M197.711 162.452H171.289C169.922 162.452 168.814 163.506 168.814 164.807C168.814 166.108 169.922 167.162 171.289 167.162H197.711C199.078 167.162 200.186 166.108 200.186 164.807C200.186 163.506 199.078 162.452 197.711 162.452Z" fill="white"/>
</g>
<defs>
<clipPath id="clip0_2219_1621">
<rect width="1899" height="473.106" fill="white" transform="translate(0 0.211426)"/>
</clipPath>
</defs>
</svg>
